<?xml version="1.0" encoding="utf-8"?>
<!-- Generator: Adobe Illustrator 23.0.3, SVG Export Plug-In . SVG Version: 6.00 Build 0)  -->
<svg version="1.1" xmlns="http://www.w3.org/2000/svg" xmlns:xlink="http://www.w3.org/1999/xlink" x="0px" y="0px"
	 viewBox="0 0 600 600" style="enable-background:new 0 0 600 600;" xml:space="preserve">
<style type="text/css">
	.st0{fill:#E8E8E8;}
	.st1{fill:#040844;}
	.st2{fill:#202124;}
	.st3{fill:none;}
	.st4{fill:#C1C1C1;}
	.st5{fill:#FFFFFF;}
	.st6{fill:#F7CD5B;}
	.st7{fill:#5185EC;}
	.st8{fill:#EB506E;}
	.st9{fill:none;stroke:#202124;stroke-width:0.75;stroke-miterlimit:10;}
	.st10{fill:#709AEE;}
	.st11{fill:#B1CEFC;}
	.st12{fill:#FFFFFF;stroke:#202124;stroke-width:0.75;stroke-miterlimit:10;}
	.st13{fill:#F4DE5B;}
	.st14{fill:#5185EC;stroke:#5185EC;stroke-miterlimit:10;}
	.st15{fill:#5492ED;}
</style>
<g id="window_4_1_">
	<g id="window_4">
		<rect x="311.2" y="310.8" class="st0" width="256.1" height="256.1"/>
	</g>
	<g id="torso_3_">
		<path class="st1" d="M385.7,396.3c0,3.6,0,9.1,0.4,15.7c0.9,15.5,3,27.3,5.3,40c1.1,6.1,2.7,14.5,5,24.4c2,7.6,4.1,15.2,6.1,22.8
			c34.3,1.3,68.7,2.5,103,3.8c0.3-4.1,0.6-8.3,0.8-12.4c2-32,2.8-63.3,2.7-93.7c-4.9-2.6-11.5-5.8-19.5-8.8
			c-5.2-1.9-14.2-5.2-25.6-7c-5.5-0.9-22.9-3.2-44.5,1.8C405.3,386.2,394,391.4,385.7,396.3z"/>
		<g>
			<g>
				<path class="st2" d="M412.7,365.2c1.9,0,1.9-3,0-3C410.8,362.2,410.8,365.2,412.7,365.2L412.7,365.2z"/>
			</g>
		</g>
		<g>
			<path class="st3" d="M385.5,396.8c4.7-4.8,13.3-7.3,19.4-9.6c9-3.5,18.7-5.6,28.3-6.5c18.6-1.8,36.8-0.5,54.1,6.5
				c7.4,3,15.4,6.1,22.4,9.9c-0.3-0.4-0.5-0.2-0.8-0.3"/>
		</g>
		<g>
			<path class="st3" d="M387,419.7c2.6,26.9,7.8,53.5,15.5,79.4"/>
		</g>
		<g>
			<g>
				<path class="st2" d="M509.5,420.9c-1.1,27.3-2.5,54.7-4.4,82c0,0.5,0.7,0.5,0.8,0c1.9-27.3,3.4-54.6,4.4-82
					C510.3,420.5,509.5,420.5,509.5,420.9L509.5,420.9z"/>
			</g>
		</g>
	</g>
	<g id="Layer_36">
		<rect x="311.6" y="476.3" class="st4" width="255.3" height="90.2"/>
		<g>
			<path class="st3" d="M312.2,476.3c85.1,0,170.2,0,255.2,0"/>
		</g>
	</g>
	<g id="paper">
		<path class="st5" d="M415.4,478.4c-7,10.1-13.9,20.2-20.9,30.3c19.3-0.5,38.6-1,58-1.6c2.2-9.6,4.4-19.1,6.7-28.7
			C444.5,478.3,430,478.3,415.4,478.4z"/>
		<g>
			<path class="st3" d="M414.8,479.1c-7,9.7-13.7,19.5-20.3,29.5c19.3,0.1,38.7-0.4,58-1.6"/>
		</g>
		<g>
			<path class="st3" d="M418.1,478.8c13.1,0,26.3,0,39.4,0"/>
		</g>
		<g>
			<path class="st3" d="M457.6,481.6c-1.6,8.1-3.1,16.2-4.5,24.4"/>
		</g>
		<g>
			<g>
				<path class="st2" d="M421.1,504c4.2,0,8.4,0,12.7,0c0.5,0,0.5-0.8,0-0.8c-4.2,0-8.4,0-12.7,0C420.6,503.3,420.6,504,421.1,504
					L421.1,504z"/>
			</g>
		</g>
		<g>
			<g>
				<path class="st2" d="M419.5,500.4c5.8,0,11.5,0,17.3,0c0.5,0,0.5-0.8,0-0.8c-5.8,0-11.5,0-17.3,0
					C419,499.6,419,500.4,419.5,500.4L419.5,500.4z"/>
			</g>
		</g>
		<g>
			<g>
				<path class="st2" d="M419.7,497.4c9.5,0,19.1,0,28.6,0c0.5,0,0.5-0.8,0-0.8c-9.5,0-19.1,0-28.6,0
					C419.3,496.6,419.3,497.4,419.7,497.4L419.7,497.4z"/>
			</g>
		</g>
		<g>
			<g>
				<path class="st2" d="M417,493.4c6.2,0,12.4,0,18.7,0c0.5,0,0.5-0.8,0-0.8c-6.2,0-12.4,0-18.7,0
					C416.5,492.7,416.5,493.4,417,493.4L417,493.4z"/>
			</g>
		</g>
		<g>
			<g>
				<path class="st2" d="M412.8,486.5c12.7,0,25.3,0,38,0c0.5,0,0.5-0.8,0-0.8c-12.7,0-25.3,0-38,0
					C412.3,485.8,412.3,486.5,412.8,486.5L412.8,486.5z"/>
			</g>
		</g>
	</g>
	<g id="hand_right_3_">
		<path class="st6" d="M397.6,481.2c-1,0.9-1.4,1.9-2,3.6c-0.2,0.5-0.9,2.5-1.4,6.1c-0.2,1.5-0.3,2.8-0.4,3.7c1.1,1.4,2.1,2.6,3,3.4
			c1.5,1.5,2.8,2.7,4.8,3.4c1.3,0.5,2.3,0.6,4.3,0.7c1.5,0.1,3.6,0.2,6.2-0.1c1.8-0.9,3-2.5,3-4.3c0-1.1-0.5-1.9-0.8-2.3
			c-2-2.8-4-5.6-6-8.4c0.1-0.6,0.3-2-0.3-3.4c-0.8-1.7-2.3-2.4-3.6-3c-1.1-0.5-2.3-1.1-3.8-0.8C398.9,480,397.9,480.9,397.6,481.2z"
			/>
		<path class="st1" d="M385.7,396.3c-1.1,1.4-2.6,3.3-4.4,5.7c-7.8,10.3-13.4,17.7-19.6,27.4c-5.1,8.1-7.9,13.5-11,19.5
			c-5,9.7-1.3,4-5.1,12c-1,2-2,4.1-1.9,6.9c0.2,3,1.6,5.2,2.1,6c1.7,2.5,3.8,3.7,5.7,4.8c9,5,12.1,6.1,12.1,6.1
			c13,4.7,27.3,9,30.1,9.9c0.1-1.5,0.2-3.2,0.5-5c0.5-3.2,1.3-5.9,2.2-8.2c-1.9-1.9-3.7-3.8-5.6-5.7c-4-4.1-8-8.2-11.9-12.3
			c3.1-4.3,6.4-8.7,10-13.1c6.1-7.6,12.3-14.5,18.2-20.7c1.3-3.5,1.5-6.5,1.3-8.7C407.8,410.4,398.7,401.1,385.7,396.3z"/>
		<g>
			<path class="st3" d="M385.7,396.3c-16,20.8-32.2,42-40.8,66.7c-0.7,1.9-1.3,3.9-1.1,5.9c0.3,4.3,4.1,7.4,7.8,9.7
				c8.8,5.4,18.6,8.8,28.5,11.9c4.4,1.4,8.8,2.6,13.2,3.9"/>
		</g>
		<g>
			<g>
				<path class="st5" d="M406.2,430.3c-9.7,9.9-18.6,20.6-26.7,32c-0.3,0.4,0.4,0.8,0.6,0.4c8-11.3,16.9-21.9,26.5-31.8
					C407,430.5,406.5,430,406.2,430.3L406.2,430.3z"/>
			</g>
		</g>
		<g>
			<path class="st3" d="M377.9,462c6.1,6.4,12.2,12.8,18.3,19.2"/>
		</g>
		<g>
			<g>
				<path class="st2" d="M396,481.5c0.2,1.2-0.7,2.7-1,3.8c-0.3,1-0.6,2.1-0.8,3.2c-0.4,2-0.7,4.1-0.7,6.1c0,0.5,0.7,0.5,0.8,0
					c0.1-2.8,0.5-5.5,1.3-8.2c0.5-1.6,1.7-3.4,1.3-5.1C396.7,480.8,395.9,481,396,481.5L396,481.5z"/>
			</g>
		</g>
		<g>
			<g>
				<path class="st2" d="M396.5,481.6c1.5,0.1,2.5-0.7,3.8-1.4c2.7-1.3,5.4,2,7.3,3.6c0.4,0.3,0.9-0.2,0.5-0.5
					c-1.6-1.3-3.7-3.9-5.8-4.3c-2.2-0.3-3.6,1.9-5.8,1.8C396,480.9,396,481.6,396.5,481.6L396.5,481.6z"/>
			</g>
		</g>
		<g>
			<g>
				<path class="st2" d="M393.4,494.8c2.3,2.6,4.4,5.6,7.7,6.8c3.1,1.2,6.7,0.9,9.9,0.6c0.5,0,0.5-0.8,0-0.8
					c-3.2,0.3-6.5,0.6-9.6-0.6c-3.2-1.2-5.3-4.1-7.4-6.6C393.7,494,393.1,494.5,393.4,494.8L393.4,494.8z"/>
			</g>
		</g>
		<g>
			<g>
				<path class="st2" d="M406,485.2c3,3.2,5.6,6.7,7.9,10.5c0.2,0.4,0.9,0,0.6-0.4c-2.3-3.8-5-7.4-8-10.6
					C406.2,484.3,405.6,484.8,406,485.2L406,485.2z"/>
			</g>
		</g>
		<g>
			<g>
				<path class="st2" d="M404.9,489.6c1.8,3.2,4.6,5.5,7.3,7.8c0.4,0.3,0.9-0.2,0.5-0.5c-2.7-2.2-5.5-4.5-7.2-7.6
					C405.3,488.8,404.7,489.2,404.9,489.6L404.9,489.6z"/>
			</g>
		</g>
		<g>
			<g>
				<path class="st2" d="M403.3,493.8c2.3,2.6,5,4.6,8.1,6c0.4,0.2,0.8-0.5,0.4-0.6c-3.1-1.4-5.8-3.3-8-5.9
					C403.5,492.9,403,493.4,403.3,493.8L403.3,493.8z"/>
			</g>
		</g>
		<g>
			<g>
				<path class="st2" d="M402,498.8c2.5,1.2,5.1,2.1,7.9,2.6c0.5,0.1,0.7-0.6,0.2-0.7c-2.7-0.5-5.2-1.4-7.7-2.5
					C402,497.9,401.6,498.6,402,498.8L402,498.8z"/>
			</g>
		</g>
	</g>
	<g id="pen">
		<path class="st7" d="M447.7,496L447.7,496c-1.2-0.3-1.8-1.5-1.5-2.7l11.4-40.9c0.3-1.2,1.5-1.8,2.7-1.5l0,0
			c1.2,0.3,1.8,1.5,1.5,2.7l-11.4,40.9C450.1,495.6,448.9,496.3,447.7,496z"/>
	</g>
	<g id="hand_left_2_">
		<path class="st6" d="M469.5,475.7c-1-1.6-2.1-2.7-2.9-3.5c-1.5-1.4-3.8-3.6-5.6-3c-0.6,0.2-1.2,0.7-1.3,1.3c-0.1,0.4,0.1,0.8,1,2
			c0.4,0.6,1,1.4,1.7,2.2c-1.8,1.7-3.5,3-4.9,4c-2.3,1.5-3.4,2.3-5,2.8c-2,0.7-3,0.5-4.6,1.6c-0.7,0.5-1.7,1.2-2.3,2.4
			c-0.8,1.8-0.1,3.7,0.6,5.8c0.6,1.6,1.3,2.9,1.9,3.8c1.1,0.5,2.8,1.2,4.9,1.4c3.7,0.5,6.6-0.5,7.9-1c3.7-1.3,5.8-3.4,9.9-7.5
			c2.7-2.7,3.1-3.6,3.2-4.2C474.8,479.9,470.3,476.3,469.5,475.7z"/>
		<path class="st1" d="M509.5,397.2c-1.9,1.7-3.9,3.8-5.7,6.2c-7.9,10.3-9.4,21.7-9.7,27.9c3.9,9.3,7.8,18.5,11.8,27.8
			c-12.1,5.5-24.2,11-36.2,16.6c0.3,1,0.6,2,0.9,3.2c0.8,3.8,0.8,7.1,0.5,9.8c8.9,0.6,16.7,0.6,22.9,0.4c5.7-0.2,17-0.7,31.3-2.9
			c6.4-1,11.8-2.1,15.8-2.9c-0.3-2.8-0.9-6.9-1.6-11.7c-2.4-16.2-5-27-7.4-37c-2-8.3-3.6-13.9-6.7-20.2c-2.2-4.4-4.3-7.5-7.1-10.4
			C514.9,400.6,511.7,398.5,509.5,397.2z"/>
		<g>
			<path class="st3" d="M509.5,397.2c6.7,3.5,11.8,9.6,15.3,16.4c3.5,6.7,5.4,14.1,7.2,21.5c3.7,15.4,6.7,31,8.8,46.7"/>
		</g>
		<g>
			<g>
				<path class="st5" d="M470,475.3c17.8-7,35.1-15,52-23.9c0.4-0.2,0-0.9-0.4-0.6c-16.8,8.9-34.1,16.9-51.8,23.9
					C469.3,474.7,469.5,475.4,470,475.3L470,475.3z"/>
			</g>
		</g>
		<g>
			<g>
				<path class="st2" d="M469.5,476.3c0.5,0,0.5-0.8,0-0.8C469,475.6,469,476.3,469.5,476.3L469.5,476.3z"/>
			</g>
		</g>
		<g>
			<g>
				<path class="st2" d="M469.2,475.8c1.1,3.2,1.5,6.6,1.1,10c-0.1,0.5,0.7,0.5,0.8,0c0.4-3.5,0-6.8-1.1-10.2
					C469.7,475.1,469,475.3,469.2,475.8L469.2,475.8z"/>
			</g>
		</g>
		<g>
			<g>
				<path class="st2" d="M472.2,488.9c22.8,1.4,45.6-0.4,68-5.4c0.5-0.1,0.3-0.8-0.2-0.7c-22.3,5-45,6.8-67.8,5.4
					C471.7,488.2,471.7,488.9,472.2,488.9L472.2,488.9z"/>
			</g>
		</g>
		<g>
			<g>
				<path class="st2" d="M469.3,474.6c-1.2-1.6-2.6-3.1-4.3-4.2c-1.2-0.8-3.1-1.8-4.6-1.6c-3.1,0.5,0.8,5.2,1.8,6.2
					c0.3,0.4,0.9-0.2,0.5-0.5c-0.8-0.9-2.1-2.3-2.4-3.6c-0.4-0.5-0.3-1,0.3-1.4c0.3,0,0.6,0.1,0.9,0.1c0.7,0.2,1.4,0.4,2.1,0.8
					c2.1,1.1,3.7,2.8,5.2,4.7C469.1,475.5,469.6,475,469.3,474.6L469.3,474.6z"/>
			</g>
		</g>
		<g>
			<path class="st3" d="M462.1,475.3c-2.6,3.7-7,5.6-11.4,6.9c-1.7,0.5-3.6,1.1-4.8,2.4"/>
		</g>
		<g>
			<g>
				<path class="st2" d="M446.1,486.1c3.9,0.6,7.7,0.6,11.5-0.1c0.5-0.1,0.3-0.8-0.2-0.7c-3.7,0.7-7.4,0.7-11.1,0.1
					C445.8,485.3,445.6,486,446.1,486.1L446.1,486.1z"/>
			</g>
		</g>
		<g>
			<g>
				<path class="st2" d="M446.2,487.7c2.9,2.8,8.4,2.3,12,2c0.5,0,0.5-0.8,0-0.8c-3.4,0.3-8.8,0.9-11.5-1.7
					C446.4,486.8,445.8,487.4,446.2,487.7L446.2,487.7z"/>
			</g>
		</g>
		<g>
			<g>
				<path class="st2" d="M446.4,490.6c3.2,2.9,7.3,3,11.4,2.6c0.5-0.1,0.5-0.8,0-0.8c-3.8,0.5-7.8,0.4-10.9-2.3
					C446.6,489.7,446,490.3,446.4,490.6L446.4,490.6z"/>
			</g>
		</g>
		<g>
			<path class="st3" d="M447.6,494.7c1.2,1.1,2.9,1.5,4.5,1.7c2.7,0.4,5.4,0.8,8,0.1c1.8-0.5,3.5-1.6,5-2.7c2.1-1.5,4.1-3.3,5.8-5.1
				"/>
		</g>
		<g>
			<g>
				<path class="st5" d="M493.7,431.4c3.8,9,7.5,18,11.3,27c0.2,0.4,0.9,0.2,0.7-0.2c-3.8-9-7.5-18-11.3-27
					C494.2,430.8,493.5,431,493.7,431.4L493.7,431.4z"/>
			</g>
		</g>
	</g>
	<g id="head_3_">
		<path class="st6" d="M422.3,370.3c-0.2,0.6-0.9,2.6-1.1,5.2c-0.1,2,0.1,3.7,0.3,4.8c0.6,3.4,2,5.8,2.4,6.5
			c2.1,3.4,4.7,5.2,5.4,5.7c3.7,2.4,7.3,2.8,9.1,2.8c0.2,0.3,0.4,0.6,0.6,0.9c-0.2,0-1.3,0.3-1.7,1.2c-0.4,1,0.4,2,1,2.6
			c2.4,2,7.3-0.6,7.6-0.8c1.2-0.7,2.6-1.4,3.3-3.1c0.8-1.9,0.2-3.7,0-4.2c0.8-0.7,1.8-1.6,2.8-3c1.3-1.8,2-3.5,2.3-4.3
			c0.4-1.1,1.1-3.3,0.9-6.2c-0.3-3.2-1.7-5.4-2.9-7.2c-0.8-1.2-3-4.6-6.7-6.6C437.2,359.9,424.6,364.6,422.3,370.3z"/>
		<path class="st8" d="M444.7,366.6c-0.7,0.8-1.8,1.9-3.3,2.8c-2.4,1.4-4.6,1.7-10.1,2c-2.9,0.2-6.1,0.3-9.6,0.3c-0.1,1-0.2,2-0.3,3
			c-0.6,0.1-1.6,0.3-2.8,0.1c-3.9-0.7-5.7-4.5-6-5.2c-0.5-1.2-1.7-3.8-0.4-6.2c0.8-1.4,2.1-2.1,2.7-2.3c-0.1-0.9-0.1-2.6,1-4
			c0.7-0.9,2.2-1.8,6.1-1.8c4.2,0,5.8,1.1,11.7,2.6c7.3,1.9,10.9,2.7,10.9,2.7c1.7,0.4,4,0.9,5.8,2.9c1,1.1,1.5,2.3,1.7,3.2
			c0.5-0.1,2.1-0.3,3.4,0.7c1.6,1.1,1.8,3,2,4.1c0.4,3.4-1.6,6.1-2.2,6.9c-1.5-1.2-3.2-2.7-4.9-4.5
			C447.9,371.2,446.1,368.8,444.7,366.6z"/>
		<g>
			<path class="st3" d="M421.7,372.4c-1.6,6.7,0.6,14.2,5.8,18.7c5.2,4.5,13.2,5.5,19.2,2.3s9.6-10.7,8-17.4"/>
		</g>
		<g>
			<g>
				<path class="st2" d="M436,378.4c-0.6,4-1.1,8.3,2,11.5c0.3,0.3,0.9-0.2,0.5-0.5c-2.9-2.9-2.4-7-1.8-10.8
					C436.8,378.1,436,377.9,436,378.4L436,378.4z"/>
			</g>
		</g>
		<g>
			<path class="st3" d="M420.8,374.9c-1.7,0.4-3.3-0.6-4.7-1.6c-1.6-1.2-3.1-2.4-4.2-4c-1.1-1.6-1.6-3.7-1-5.6
				c0.7-1.8,2.8-3.2,4.6-2.6c-1-1.1-0.7-3,0.3-4.1c1-1.1,2.6-1.6,4.1-1.7c3.9-0.4,7.7,0.7,11.4,1.8c5,1.5,9.9,3,14.9,4.5
				c2.7,0.8,6,2.3,6.2,5.1"/>
		</g>
		<g>
			<path class="st3" d="M452.4,366.8c1.3-0.5,2.8,0.1,3.7,1.1c0.9,1,1.3,2.4,1.3,3.8c0.1,1.6-0.2,3.2-1.3,4.3"/>
		</g>
		<g>
			<path class="st3" d="M421.6,371.7c1.3,0.4,2.8,0.3,4.1,0.1c6.5-0.9,13.1-2,18.6-5.5"/>
		</g>
		<g>
			<path class="st3" d="M444.2,366.2c2.6,1.7,3.6,5,6,6.9c1.6,1.2,3.5,1.8,5.5,2.3"/>
		</g>
		<g>
			<g>
				<path class="st2" d="M438.3,395.6c0.4,0.6,0.7,1.3,1.1,1.9c0.2,0.4,0.9,0,0.6-0.4c-0.4-0.6-0.7-1.3-1.1-1.9
					C438.7,394.8,438.1,395.2,438.3,395.6L438.3,395.6z"/>
			</g>
		</g>
		<g>
			<path class="st3" d="M437.6,396.8c-0.7,1-0.2,2.4,0.7,3.2s2.3,0.8,3.4,0.7c3.3-0.4,6.3-2.4,7.9-5.3"/>
		</g>
		<ellipse class="st2" cx="431.6" cy="381.6" rx="0.8" ry="1.4"/>
		<ellipse class="st2" cx="441.8" cy="381.6" rx="0.8" ry="1.4"/>
	</g>
	<g id="Layer_37">
		<circle class="st5" cx="378.9" cy="534.7" r="17.4"/>
		<circle class="st8" cx="508.4" cy="534.7" r="17.4"/>
		<circle class="st5" cx="443.6" cy="536.5" r="17.4"/>
		<g>
			<g>
				<path class="st5" d="M481.6,522.7c1.9,0,1.9-3,0-3C479.7,519.7,479.7,522.7,481.6,522.7L481.6,522.7z"/>
			</g>
		</g>
		<path class="st5" d="M510.7,525.6h-0.2H508h-3.7c-1.1,0-2,0.9-2,2v0.8v2.9h3.7v-0.9h2v9.8h-1.7v-1.1h-3.7v1.6v2v1.8
			c0,0.3,0.2,0.5,0.5,0.5h6.4c0.7,0,1.3-0.2,1.9-0.6c1.5-0.7,2.6-2.3,2.6-4.1v-11.4C514,527.1,512.5,525.6,510.7,525.6z"/>
		<path class="st2" d="M450.4,534.7h-14.2c-1,0-1.8-0.8-1.8-1.8l0,0c0-1,0.8-1.8,1.8-1.8h14.2c1,0,1.8,0.8,1.8,1.8l0,0
			C452.2,533.8,451.4,534.7,450.4,534.7z"/>
		<path class="st2" d="M450.5,543h-14.3c-1,0-1.8-0.8-1.8-1.8l0,0c0-1,0.8-1.8,1.8-1.8h14.3c1,0,1.8,0.8,1.8,1.8l0,0
			C452.3,542.1,451.5,543,450.5,543z"/>
		<circle class="st8" cx="378.5" cy="535" r="9.2"/>
	</g>
</g>
<g id="window_3">
	<g id="window_1_">
		<rect x="30.2" y="310.8" class="st0" width="256.1" height="256.1"/>
	</g>
	<g id="hand_left_1_">
		<path class="st8" d="M251.3,454c0.8,0.6,2.1,1.6,3.4,3.1c2,2.3,3.1,4.4,3.8,6.1c6.8,15.8,8.3,22.8,8.3,22.8
			c3.4,15.7,4.3,17.8,5.8,23.2c1.9,7.3,2.9,12.8,3.9,18.3c1.8,9.9,4.1,23.2,6.8,39.1c-12.7,0-25.4,0-38.2,0
			c-1.3-3.7-2.6-7.4-3.9-11.2c-6.1-17.2-12.6-33.7-19.3-49.5C231.6,488.5,241.4,471.3,251.3,454z"/>
		<g>
			<path class="st3" d="M251.3,454c4.5,3,7,8.3,9,13.3c10.4,25.9,15.1,53.6,19.8,81c1.1,6.2,2.1,12.4,3.2,18.6"/>
		</g>
		<g>
			<path class="st3" d="M223.6,511c7.9,18.3,15,36.9,21.5,55.8"/>
		</g>
	</g>
	<g id="torso_2_">
		<path class="st8" d="M98.5,447.6c3.2-0.8,7.7-1.9,13.1-3.1c6.1-1.3,20.4-4.3,36.6-5.5c8.7-0.7,29.1-1.8,55,2.3
			c18.6,2.9,34.8,7.7,48,12.8c0.1,11,0.2,22.1,0.3,33.1c-2.4,9.2-4.7,18.7-7,28.3c-4.1,17.4-7.7,34.4-10.9,51c-40,0-80.1,0-120.1,0
			c-1.5-5.9-2.9-11.9-4.2-18.1C101.7,512.4,98.7,478.5,98.5,447.6z"/>
		<g>
			<g>
				<path class="st2" d="M160.3,384.5c1.9,0,1.9-3,0-3C158.4,381.5,158.4,384.5,160.3,384.5L160.3,384.5z"/>
			</g>
		</g>
		<g>
			<path class="st3" d="M98.9,447.9c49.7-14.6,104.1-12.4,152.4,6.2"/>
		</g>
		<g>
			<path class="st3" d="M99.3,491c3.6,25.3,8.3,50.4,14.1,75.3"/>
		</g>
		<g>
			<path class="st3" d="M251.5,488.6c-7,25.9-12.9,52-17.9,78.3"/>
		</g>
	</g>
	<g id="hand_right_2_">
		<path class="st8" d="M98.5,447.6c-1.2,0.8-2.8,1.9-4.5,3.5c-3.9,3.5-6.3,7.1-8.1,10.3c-4.1,7.2-6.3,14.5-8,20.3
			c-3.8,12.5-5.6,18.8-8.3,29.6c-1.4,5.6-3.1,12.4-4.9,21.4c-1.7,8.7-3.7,20.1-5.3,33.8c14.6,0,29.2,0,43.8,0
			c0.4-5.9,1.1-12.3,2.3-19c2.2-13.2,5.6-24.8,9.1-34.6c2.1-5.4,4.4-13.9,3.8-24.3C117.1,466,102.6,451.4,98.5,447.6z"/>
		<g>
			<path class="st3" d="M98.5,447.6c-5.8,3.6-10.2,9.1-13.4,15.1c-3.2,6-5.3,12.5-7.3,19c-8.6,27.9-15.4,56.5-18.6,85.5"/>
		</g>
		<g>
			<path class="st3" d="M112.7,518.2c-5.1,15.6-8.3,31.8-9.5,48.2"/>
		</g>
	</g>
	<g id="head_2_">
		<path class="st6" d="M145.2,396.8c-0.3,1-1,3.8-1.5,7.1c-0.4,2.8-0.8,6.1-0.5,10c0.3,2.7,0.7,6.8,3.3,11.3
			c3.1,5.2,7.3,7.7,8.4,8.4c3.8,2.1,7.4,2.7,9.4,2.8c0.7,1.7,1.4,3.5,2.1,5.2c-2.1,0.2-3.9,1.5-4.6,3.4c-0.7,1.9-0.1,3.9,1.1,5.1
			c1.3,1.5,3.2,1.6,5.1,1.7c0.7,0,3.3,0.2,6.5-1.1c1.4-0.6,4.4-1.9,6.8-5.1c2.6-3.6,2.7-7.4,2.7-8.7c-0.4-2.4-0.8-4.9-1.2-7.3
			c0.7-0.8,1.7-2,2.7-3.6c1.8-2.9,2.4-5.6,2.8-7.4c1.9-9.2,2.9-13.8,2-19c-0.7-4-1.8-10.7-6.7-14.6
			C172.4,375.8,148.4,386.7,145.2,396.8z"/>
		<path class="st2" d="M143.6,405c0.2-1.4,0.5-2.8,0.7-4.2c1-0.1,2.4-0.2,3.9-0.7c0.9-0.3,2.8-1,6-3.5c1.7-1.4,4.1-3.5,6.5-6.7
			c0.7-0.1,1.4-0.1,2.2-0.2c0.8,0.5,1.7,0.9,2.8,1.3c4.4,1.6,8.5,1,10.8,0.4c0.1,1,0.2,2.4,0.7,4.1c0.5,1.9,1.3,4.6,3.7,6.7
			c0.7,0.6,2.1,1.7,4.4,2.3c0.4,1.6,0.9,3.3,1.7,5.2c1.2,3,2.7,5.5,4.1,7.4c1-0.2,2.6-0.6,4.3-1.6c1-0.6,2.4-1.4,3.4-3.1
			c0.3-0.6,1.5-2.5,1.2-5.1c-0.5-3.8-3.9-5.6-4.3-5.7c0.8-0.5,2.1-1.3,3.1-2.7c2.1-2.9,1.9-6.1,1.8-7c-0.4-5.1-4.6-9.6-9.6-10.6
			c-2.6-0.6-4.9,0-6.2,0.4c-0.4-0.7-2-3.4-5.3-4.5c-3.4-1.1-7.3,0.1-10,2.9c-0.6-1.2-2.5-4.1-6.2-5.8c-0.7-0.3-6.7-3-12.3,0.6
			c-4,2.5-6.2,7.3-5.7,12.1c-1-0.1-2.9-0.2-5.1,0.7c-0.9,0.4-4.8,2.1-5.7,6.3c-0.8,3.8,1.4,7.2,3.7,9
			C140.3,404.6,142.6,405,143.6,405z"/>
		<g>
			<path class="st3" d="M144.3,401.4c-2.3,10-1.4,21.6,6.2,28.9c6.4,6.2,17.2,8,25.5,4.3s13.6-12.7,12.6-21.3"/>
		</g>
		<g>
			<path class="st3" d="M164.4,436.5c0.8,2,1.6,3.9,2.4,5.9"/>
		</g>
		<g>
			<path class="st3" d="M163.9,442.1c-1.6,0.4-3,1.7-3.4,3.3c-0.5,1.6,0,3.4,1.2,4.6c1.2,1.2,2.9,1.7,4.5,1.9
				c4.3,0.5,8.8-0.5,12.3-3.2c3.4-2.6,5.7-6.8,5.7-11.2"/>
		</g>
		<g>
			<g>
				<path class="st2" d="M160.5,406.6c-1.2,5.4-3.2,14.9,2.3,18.6c0.4,0.3,0.8-0.4,0.4-0.6c-4.9-3.4-3-12.9-1.9-17.8
					C161.3,406.3,160.6,406.1,160.5,406.6L160.5,406.6z"/>
			</g>
		</g>
		<g>
			<g>
				<path class="st2" d="M142.6,404.6c-10.6-1.9-8.2-18.3,2.7-17.2c0.2,0,0.4-0.2,0.4-0.4c-1.7-13.7,17.1-18.3,23.4-6.7
					c0.2,0.4,0.9,0,0.6-0.4c-5.6-10.3-22.4-9.3-24.8,3.1c-0.3,1.4,0.2,2.7-1.1,3.5c-0.4,0.3-2.4,0.3-3,0.5c-2.4,0.8-4.3,2.6-5.3,4.9
					c-2.3,5.5,0.9,12.3,6.8,13.3C142.9,405.5,143.1,404.7,142.6,404.6L142.6,404.6z"/>
			</g>
		</g>
		<g>
			<g>
				<path class="st2" d="M169.7,380.4c4.4-4.5,11.4-4.1,14.7,1.5c0.1,0.1,0.3,0.2,0.4,0.2c9.5-3.1,19.4,12.8,11.1,19.4
					c-0.4,0.3,0.2,0.8,0.5,0.5c8-6.3,1.4-17.2-6.2-20.4c-1.9-0.8-4.1-0.3-5.8-1.2c-1.6-0.9-2.2-2.5-4.1-3.3c-4-1.7-8.2-0.3-11.1,2.7
					C168.8,380.2,169.3,380.7,169.7,380.4L169.7,380.4z"/>
			</g>
		</g>
		<g>
			<g>
				<path class="st2" d="M195.4,402c3.6,1,4.7,5.2,3.7,8.5c-1,3.4-4.1,5.5-7.6,5.5c-0.5,0-0.5,0.8,0,0.8c4.2-0.1,7.7-2.8,8.5-6.9
					c0.7-3.5-0.8-7.5-4.4-8.5C195.1,401.1,195,401.8,195.4,402L195.4,402z"/>
			</g>
		</g>
		<g>
			<g>
				<path class="st2" d="M144.3,401.2c5.8-0.5,10-3.8,13.8-7.9c0.6-0.6,1.1-1.2,1.7-1.8c1.5-1.6,2.9-1.8,4.3-0.6
					c0.8,0.1,2.4,0.9,3.2,1.1c2.8,0.7,5.6,0.5,8.4-0.1c0.5-0.1,0.3-0.8-0.2-0.7c-2.7,0.6-5.3,0.8-8,0.1c-1.6-0.4-3.6-2-5.2-2.1
					c-0.8-0.1-0.8-0.1-1.5,0.2c-1.9,0.8-3.6,3.8-5.1,5.2c-3.3,3.2-6.9,5.5-11.6,5.9C143.8,400.5,143.8,401.3,144.3,401.2
					L144.3,401.2z"/>
			</g>
		</g>
		<g>
			<g>
				<path class="st2" d="M176.1,391.6c0.7,4.8,1.7,8.8,5.7,11.8c1.5,1.1,3.3,1.8,4.1,3.4c0.6,1.1,0.8,2.4,1.3,3.5
					c1,2.4,2.3,4.3,4.2,6.1c0.4,0.3,0.9-0.2,0.5-0.5c-2.6-2.4-3.8-5.2-5-8.5c-0.4-1.1-0.6-2.2-1.4-3c-1.4-1.5-4-1.9-5.5-3.6
					c-2.2-2.5-2.7-6.1-3.1-9.3C176.8,391,176,391.2,176.1,391.6L176.1,391.6z"/>
			</g>
		</g>
		<ellipse class="st2" cx="154.4" cy="411" rx="1.3" ry="2.5"/>
		<ellipse class="st2" cx="172.4" cy="409.7" rx="1.3" ry="2.5"/>
		<path class="st9" d="M153.1,422.7h-13.4c-2.5,0-4.5-2-4.5-4.5v-14.6c0-2.5,2-4.5,4.5-4.5h13.4c2.5,0,4.5,2,4.5,4.5v14.6
			C157.6,420.7,155.6,422.7,153.1,422.7z"/>
		<path class="st9" d="M182.4,422.7H169c-2.5,0-4.5-2-4.5-4.5v-14.6c0-2.5,2-4.5,4.5-4.5h13.4c2.5,0,4.5,2,4.5,4.5v14.6
			C186.9,420.7,184.9,422.7,182.4,422.7z"/>
		<g>
			<g>
				<path class="st2" d="M158.1,411.1c1.6-1.7,4.3-1.1,6,0.1c0.4,0.3,0.8-0.4,0.4-0.6c-2-1.3-5.1-1.8-6.9,0.1
					C157.2,410.9,157.7,411.4,158.1,411.1L158.1,411.1z"/>
			</g>
		</g>
	</g>
	<g id="signs_2_">
		<circle class="st5" cx="99.8" cy="531" r="17.4"/>
		<circle class="st10" cx="229.3" cy="531" r="17.4"/>
		<circle class="st5" cx="164.5" cy="532.8" r="17.4"/>
		<g>
			<g>
				<path class="st5" d="M202.5,519c1.9,0,1.9-3,0-3C200.6,516,200.6,519,202.5,519L202.5,519z"/>
			</g>
		</g>
		<path class="st5" d="M231.6,521.9h-0.2h-2.5h-3.7c-1.1,0-2,0.9-2,2v0.8v2.9h3.7v-0.9h2v9.8h-1.7v-1.1h-3.7v1.6v2v1.8
			c0,0.3,0.2,0.5,0.5,0.5h6.4c0.7,0,1.3-0.2,1.9-0.6c1.5-0.7,2.6-2.3,2.6-4.1v-11.4C234.9,523.4,233.4,521.9,231.6,521.9z"/>
		<path class="st2" d="M171.3,531H157c-1,0-1.8-0.8-1.8-1.8l0,0c0-1,0.8-1.8,1.8-1.8h14.2c1,0,1.8,0.8,1.8,1.8l0,0
			C173.1,530.2,172.3,531,171.3,531z"/>
		<path class="st2" d="M171.4,539.3H157c-1,0-1.8-0.8-1.8-1.8l0,0c0-1,0.8-1.8,1.8-1.8h14.3c1,0,1.8,0.8,1.8,1.8l0,0
			C173.2,538.5,172.4,539.3,171.4,539.3z"/>
		<circle class="st10" cx="99.4" cy="531.3" r="9.2"/>
	</g>
</g>
<g id="window_2">
	<g id="window">
		<rect x="311" y="34.9" class="st0" width="256.1" height="256.1"/>
	</g>
	<g id="table">
		<g>
			<g>
				<path class="st2" d="M311.9,244.1c83.7,0,167.4,0,251.2,0c1.9,0,1.9-3,0-3c-83.7,0-167.4,0-251.2,0
					C310,241.1,310,244.1,311.9,244.1L311.9,244.1z"/>
			</g>
		</g>
	</g>
	<g id="torso_1_">
		<path class="st11" d="M385.8,139.6c3.4-2.3,7.5-4.8,12.4-7.2c0,0,7-3.5,14.6-6c23.7-7.8,48.3-4.6,48.3-4.6c3.3,0.4,19,2.6,37,11.7
			c4.6,2.3,8.3,4.6,10.9,6.3c0.4,4,0.8,9.9,0.9,17c0.3,15.6-1.2,27-2.2,34.8c-1.7,13.6-3.7,31.1-6.1,55.5
			c-34.5,0.3-69,0.5-103.6,0.8c-1.7-9.7-3.3-19.6-4.8-29.8C389.5,190.5,387.1,164.3,385.8,139.6z"/>
		<g>
			<path class="st3" d="M385.8,139.6c18-12.2,39.8-18.8,61.5-18.8s43.5,6.8,61.4,19.1"/>
		</g>
		<g>
			<path class="st3" d="M388.6,164.4c0.8,23.5,3.3,46.9,7.4,70.1"/>
		</g>
		<g>
			<path class="st3" d="M509.5,158c-0.7,27.3-3.2,54.5-7.5,81.5"/>
		</g>
	</g>
	<g id="coffee">
		<path class="st1" d="M420.3,204.7v13.3c-6,2.1-10.2,6.4-10.2,11.5s4.2,9.4,10.2,11.5v10.2h29.9v-46.5H420.3z M417.6,229.6
			c0-2.4,1-4.7,2.7-6.7v13.3C418.6,234.3,417.6,232,417.6,229.6z"/>
		<ellipse class="st12" cx="435.3" cy="204.7" rx="14.9" ry="4.8"/>
		<g>
			<g>
				<path class="st2" d="M435,220.3c1.9,0,1.9-3,0-3C433,217.3,433,220.3,435,220.3L435,220.3z"/>
			</g>
		</g>
		<g>
			<g>
				<path class="st2" d="M429.9,167.4c-5.6,1.8-9.4,11.4-4.3,15.5c1.4,1.1,4,1.7,5,3.2c2.4,3.6-0.5,6.5-1.8,9.7
					c-1.5,3.6-1.2,7.1,1.7,9.8c0.4,0.3,0.9-0.2,0.5-0.5c-7.6-7.1,4.1-11.5,1-18.1c-0.7-1.6-2.1-2.2-3.5-3.1c-2.6-1.7-3.3-1.7-4-5
					c-1-2.1-0.8-4.1,0.8-5.9c1-2,2.6-3.6,4.6-4.8C430.6,168,430.4,167.3,429.9,167.4L429.9,167.4z"/>
			</g>
		</g>
		<g>
			<g>
				<path class="st2" d="M445.2,180.8c-3.6,1.9-10.2,8.1-8.5,12.8c0.6,1.7,0.7,0.8,1.7,2.2c0.4,0.3,0.8,0.6,1.2,0.9
					c1.6,2.2,1.8,4.1,0.4,5.7c-0.6,2-1.6,2.9-0.3,4.9c0.3,0.4,0.9,0,0.6-0.4c-1.4-2.2,1.4-5,1.7-7.1c0.1-0.8,0.2-1.3-0.2-2.1
					c-0.2-0.4-0.6-0.7-0.8-1c-0.3-0.3-0.7-0.5-1-0.8c-0.5-2.4-1-4.7-1.5-7.1c0.6-2.8,4.9-6.2,7.3-7.5
					C446,181.2,445.6,180.5,445.2,180.8L445.2,180.8z"/>
			</g>
		</g>
	</g>
	<g id="hand_right_1_">
		<path class="st13" d="M401.2,234.9c2.4-2.8,3.9-4.8,4.8-6.3c0.3-0.5,0.9-1.5,1.9-1.7c1.2-0.2,2.3,0.7,2.5,0.9
			c1.2,1,1.4,2.4,1.4,2.8c0.7,0.5,1.9,1.1,3.3,1.2c0.5,0.1,2.4,0.2,4.4-0.8c1.6-0.9,2-1.8,2.6-1.6c0.3,0.1,0.8,0.6,0.8,4.2
			c0,2.5-0.2,3.7-0.4,5.6c-0.4,5.1,0.5,6.6-0.8,9.7c-0.7,1.7-1.3,2.4-1.6,2.6c-1.4,1.3-3.3,1.6-5.7,1.6c-5.1,0-10-1.6-13-2.7
			c-0.9-0.4-3.3-1.6-4.4-4.2C395.7,242.7,397.2,237.9,401.2,234.9z"/>
		<path class="st11" d="M386.7,139c-1.2,1.2-2.8,2.9-4.7,5c-3.2,3.6-9.1,10.6-17.7,24.9c-9.2,15.3-14.7,27.4-18.1,34.9
			c-9.1,20.2-3.3,12.7-8.3,23.1c-1.2,2.5-3.3,6.6-2.1,11.2c1.1,4.1,4.2,6.5,5,7.1c3.8,2.9,8.1,3.1,10.1,3.2
			c9.4,0.5,18.7,1.9,28.1,1.9c5.6,0,13.7,0.1,23.7,0.4c0.4-1.8,0.7-4.2,0.4-7c-0.3-4-1.5-7.1-2.4-9c-8.6-2.5-17.1-5-25.7-7.5
			c1.8-3.2,4.7-8,8.7-13.4c8.1-11,12.2-13.3,18.4-21.7c6.9-9.4,12.7-17.2,12.1-25.9C413.1,149.7,389.2,140,386.7,139z"/>
		<g>
			<path class="st3" d="M385.4,140c-20.8,24.7-36.8,53.5-46.7,84.2"/>
		</g>
		<g>
			<g>
				<path class="st5" d="M400.8,192.7c-9.5,10.2-18,21.2-25.4,33c-0.3,0.4,0.4,0.8,0.6,0.4c7.4-11.7,15.8-22.7,25.3-32.9
					C401.7,192.9,401.1,192.3,400.8,192.7L400.8,192.7z"/>
			</g>
		</g>
		<g>
			<path class="st3" d="M372.1,225.3c1.3,1.3,3.1,1.9,4.8,2.5c8,2.6,16.1,5.2,24.2,7.6"/>
		</g>
		<g>
			<g>
				<path class="st5" d="M401.3,236.1c2.4,4.1,1.5,8.8,0.6,13.2c-0.1,0.5,0.6,0.7,0.7,0.2c1-4.6,1.8-9.5-0.7-13.8
					C401.7,235.3,401,235.6,401.3,236.1L401.3,236.1z"/>
			</g>
		</g>
		<g>
			<path class="st3" d="M336.3,233.4c-1.9,4.2,0.7,9.4,4.6,12c3.9,2.6,8.7,3.1,13.3,3.5c15.5,1.4,31.1,2.1,46.7,1.9"/>
		</g>
		<g>
			<path class="st3" d="M401.2,234.9c1.6-2.1,3.2-4.2,4.8-6.3c0.6-0.8,1.4-1.7,2.4-1.8c0.8-0.1,1.5,0.4,2,1s0.8,1.3,1.1,2.1"/>
		</g>
		<g>
			<path class="st3" d="M402.7,250.9c3.7,1.2,7.5,1.9,11.4,2.2c1.3,0.1,2.5,0.2,3.7-0.2c1.9-0.5,3.4-2.1,4-4"/>
		</g>
		<g>
			<g>
				<path class="st2" d="M411.7,231c3.8,2.3,7.3,1.1,10.7-1.2c0.4-0.3,0-0.9-0.4-0.6c-3.1,2.2-6.4,3.4-9.9,1.2
					C411.6,230.1,411.3,230.7,411.7,231L411.7,231z"/>
			</g>
		</g>
		<g>
			<g>
				<path class="st2" d="M416.2,238.2c2.6,1.7,6-2.4,7-4.4c0.2-0.4-0.4-0.8-0.6-0.4c-0.5,1.1-1.2,2-2.1,2.8
					c-0.9,0.8-2.7,2.2-3.9,1.3C416.2,237.3,415.8,237.9,416.2,238.2L416.2,238.2z"/>
			</g>
		</g>
		<g>
			<g>
				<path class="st2" d="M417.4,243.3c0.9,0.7,2,0,2.8-0.6c1.2-1,2.2-2.1,2.8-3.5c0.2-0.4-0.5-0.8-0.6-0.4c-0.4,0.9-1,1.7-1.7,2.5
					c-0.6,0.6-1.9,2.1-2.9,1.4C417.4,242.4,417,243,417.4,243.3L417.4,243.3z"/>
			</g>
		</g>
		<g>
			<g>
				<path class="st2" d="M418.9,247.8c1.7-0.5,3-1.9,3.2-3.7c0.1-0.5-0.7-0.5-0.8,0c-0.2,1.4-1.3,2.6-2.6,3
					C418.2,247.2,418.4,247.9,418.9,247.8L418.9,247.8z"/>
			</g>
		</g>
	</g>
	<g id="hand_keft">
		<path class="st13" d="M482.5,232.7c-1.2-1.5-2.3-2.6-3.1-3.3c-1.9-1.7-3-2.7-4.5-2.5c-0.4,0-0.4,0.1-2.3,1
			c-2.7,1.3-2.7,1.3-3.5,1.7c-1.8,1-2.7,2-3.7,3c-5,4.6-8,3.8-9.3,7.1c-0.9,2.2-0.4,4.6-0.2,5.2c0.4,1.7,1.2,3,1.7,3.7
			c3.8,0.3,8.2,0.4,13.1,0.1c5-0.3,9.4-1.1,13.1-1.9C483.3,242,482.9,237.4,482.5,232.7z"/>
		<path class="st11" d="M508.8,139.9c-1.2,1.7-2.4,3.5-3.6,5.5c-9.4,16.5-8.4,34.2-6.6,45.1c5.7,9.8,11.5,19.5,17.2,29.3
			c-11.1,4.1-22.3,8.1-33.4,12.2c0.5,5.2,1,10.3,1.4,15.5c11.2,0,20.6-0.5,27.8-1.1c9.6-0.7,19.2-1.5,31.6-4
			c7.5-1.5,13.7-3.2,18-4.4c1.5-1.2,2.9-2.3,4.4-3.5c-1.4-5.4-3.3-11.9-6-19.3c-3.7-10.2-7.7-18.7-10.9-25
			c-5.3-10.4-10.4-20.3-19.7-31.3C524.4,153.6,517.9,146.7,508.8,139.9z"/>
		<g>
			<path class="st3" d="M509,139.7c11.5,7.9,20.5,19,28.1,30.7c12.9,19.6,22.5,41.4,28.4,64.1"/>
		</g>
		<g>
			<path class="st3" d="M483.8,247.5c22.5,0,44.9-2.1,67-6.5c4.3-0.8,8.7-1.8,12.4-4.1"/>
		</g>
		<g>
			<g>
				<path class="st5" d="M483.7,244.6c0.1-4.3-0.2-8.5-0.9-12.7c-0.1-0.5-0.8-0.3-0.7,0.2c0.7,4.2,1,8.3,0.9,12.5
					C482.9,245.1,483.7,245.1,483.7,244.6L483.7,244.6z"/>
			</g>
		</g>
		<g>
			<path class="st3" d="M484.3,230.9c11.3-3.9,22.5-7.9,33.8-12"/>
		</g>
		<g>
			<g>
				<path class="st5" d="M498.3,190.6c5.6,9.5,11.2,18.9,16.8,28.4c0.2,0.4,0.9,0,0.6-0.4c-5.6-9.5-11.2-18.9-16.8-28.4
					C498.7,189.9,498.1,190.2,498.3,190.6L498.3,190.6z"/>
			</g>
		</g>
		<g>
			<path class="st3" d="M482.4,233c-1.2-1.7-2.7-3.4-4.2-4.8c-0.8-0.7-1.7-1.5-2.7-1.4c-0.5,0-1,0.3-1.5,0.5
				c-2.3,1.1-4.6,2.2-6.9,3.4"/>
		</g>
		<g>
			<g>
				<path class="st2" d="M470.8,231.7c-5.6,2-10.8,4.7-15.7,8.2c-0.4,0.3,0,0.9,0.4,0.6c4.8-3.4,10-6.1,15.5-8.1
					C471.5,232.2,471.3,231.5,470.8,231.7L470.8,231.7z"/>
			</g>
		</g>
		<g>
			<g>
				<path class="st2" d="M456.1,244c4.8-1.2,9.5-2.6,14.1-4.3c0.5-0.2,0.3-0.9-0.2-0.7c-4.6,1.7-9.3,3.1-14.1,4.3
					C455.4,243.4,455.6,244.1,456.1,244L456.1,244z"/>
			</g>
		</g>
		<g>
			<g>
				<path class="st2" d="M456.9,245.7c3.8,0.8,7.6,0.5,11.2-0.9c0.4-0.2,0.3-0.9-0.2-0.7c-3.5,1.3-7.1,1.6-10.8,0.9
					C456.6,244.9,456.4,245.6,456.9,245.7L456.9,245.7z"/>
			</g>
		</g>
		<g>
			<g>
				<path class="st2" d="M456.4,248.6c4.8,1.2,9.5,1.3,14.3,0.3c0.5-0.1,0.3-0.8-0.2-0.7c-4.7,1-9.3,0.9-13.9-0.3
					C456.1,247.8,455.9,248.5,456.4,248.6L456.4,248.6z"/>
			</g>
		</g>
	</g>
	<g id="head_1_">
		<path class="st2" d="M425.9,103.6c-0.9-0.5-2.8-1.7-4.2-3.9c-0.3-0.6-2.7-4.7-0.8-9.4c1.3-3.1,4.1-5.5,7.2-6
			c2.5-0.4,4.8,0.7,9.4,2.9c3.6,1.8,3.5,2.3,6.7,3.6c2.7,1.1,3.9,1.1,6,2.5c2,1.3,3.3,2.7,3.8,3.4c2.2,2.6,2.9,5.3,3.3,7
			c0.8,3,1.2,4.7,0.4,6.1c-0.3,0.5-1.6,2.5-8.1,2.4C445.4,112,437.1,111,425.9,103.6z"/>
		<path class="st13" d="M426.2,103.6c-0.3,1.4-0.7,3.5-0.7,6c0,3-0.1,6.8,2.2,10.8c2.7,4.8,7.1,7,9,7.7c1.3,0.5,2.5,0.8,3.3,1
			c0.5,1,1,2,1.4,3c-0.1,0-1.9,0.2-2.6,1.6c-0.7,1.5,0.3,3,0.4,3.1c1.6,2.2,5.5,1.6,6.4,1.4c3.3-0.5,5.5-2.5,6.5-3.4
			c1.4-1.3,2.3-2.6,2.8-3.6c-1.3-0.2-2.6-0.4-3.9-0.6c-0.6-1.2-1.2-2.4-1.8-3.6c0.7-0.4,1.6-1.1,2.6-2c0,0,1.4-1.3,2.5-2.9
			c5-7.3,3.2-13.4,3.2-13.4c-1.3-4.5-5-6.8-6.5-7.8c-5.1-3.3-10.4-2.8-12.5-2.6C432.3,99.1,428,102.2,426.2,103.6z"/>
		<g>
			<path class="st3" d="M426,103.6c-0.7,4.9-1.1,10.1,0.6,14.7c2.5,6.9,10,11.7,17.2,10.7c7.2-1,13.3-7.9,12.8-15.2"/>
		</g>
		<g>
			<g>
				<path class="st2" d="M437.1,105.2c-1.4,4.1-2.7,9.8,0.4,13.5c0.3,0.4,0.8-0.2,0.5-0.5c-2.8-3.4-1.5-9-0.2-12.8
					C438,104.9,437.3,104.7,437.1,105.2L437.1,105.2z"/>
			</g>
		</g>
		<g>
			<g>
				<path class="st2" d="M439.6,129.2c0.6,1.5,1.3,3,2.3,4.4c0.3,0.4,0.9,0,0.6-0.4c-0.9-1.3-1.6-2.7-2.2-4.2
					C440.1,128.5,439.4,128.7,439.6,129.2L439.6,129.2z"/>
			</g>
		</g>
		<g>
			<path class="st3" d="M438.8,133.7c-0.8,1.2-0.1,3,1.1,3.8c1.2,0.8,2.8,0.9,4.2,0.9c1.1,0,2.3-0.1,3.4-0.4
				c2.5-0.7,4.3-2.7,6.1-4.6c0.6-0.6,1.1-1.2,1.4-2"/>
		</g>
		<g>
			<g>
				<path class="st2" d="M426,103.3c-6.1-3.7-7.9-12.8-1.2-17.2c6.2-4.1,10.5,1,15.6,3.7c3.9,2.1,8.4,2.5,11.7,5.6
					c3.7,3.4,5.3,8.3,4.9,13.2c0,0.5,0.7,0.5,0.8,0c0.5-5.6-1.7-11.2-6.2-14.7c-3.2-2.5-7.2-3-10.8-4.8c-3.1-1.6-5.2-4.4-8.7-5.1
					c-12.4-2.5-16.3,14-6.5,19.9C426.1,104.2,426.5,103.6,426,103.3L426,103.3z"/>
			</g>
		</g>
		<g>
			<g>
				<path class="st2" d="M426.4,103.9c8.8-8.4,26.4-7.3,30.7,5.1c0.2,0.5,0.9,0.3,0.7-0.2c-4.5-13-22.7-14.2-32-5.4
					C425.6,103.7,426.1,104.2,426.4,103.9L426.4,103.9z"/>
			</g>
		</g>
		<ellipse class="st2" cx="444.8" cy="107.4" rx="1.2" ry="2.1"/>
		<g>
			<g>
				<path class="st2" d="M434.5,95.4c1.9,0,1.9-3,0-3C432.5,92.4,432.5,95.4,434.5,95.4L434.5,95.4z"/>
			</g>
		</g>
		<g>
			<g>
				<path class="st2" d="M437.6,122.6c3.1,0.4,6.1-0.6,8.3-2.8c0.3-0.3-0.2-0.9-0.5-0.5c-2.1,2-4.9,2.9-7.8,2.6
					C437.1,121.8,437.1,122.5,437.6,122.6L437.6,122.6z"/>
			</g>
		</g>
		<ellipse class="st2" cx="432" cy="107.4" rx="1.2" ry="2.1"/>
	</g>
	<g id="signs_1_">
		<circle class="st5" cx="378.9" cy="263.9" r="17.4"/>
		<circle class="st8" cx="508.4" cy="263.9" r="17.4"/>
		<circle class="st5" cx="443.6" cy="265.7" r="17.4"/>
		<g>
			<g>
				<path class="st5" d="M481.6,251.9c1.9,0,1.9-3,0-3C479.7,248.9,479.7,251.9,481.6,251.9L481.6,251.9z"/>
			</g>
		</g>
		<path class="st5" d="M510.7,254.8h-0.2H508h-3.7c-1.1,0-2,0.9-2,2v0.8v2.9h3.7v-0.9h2v9.8h-1.7v-1.1h-3.7v1.6v2v1.8
			c0,0.3,0.2,0.5,0.5,0.5h6.4c0.7,0,1.3-0.2,1.9-0.6c1.5-0.7,2.6-2.3,2.6-4.1v-11.4C514,256.3,512.5,254.8,510.7,254.8z"/>
		<path class="st2" d="M450.4,263.9h-14.2c-1,0-1.8-0.8-1.8-1.8l0,0c0-1,0.8-1.8,1.8-1.8h14.2c1,0,1.8,0.8,1.8,1.8l0,0
			C452.2,263.1,451.4,263.9,450.4,263.9z"/>
		<path class="st2" d="M450.5,272.2h-14.3c-1,0-1.8-0.8-1.8-1.8l0,0c0-1,0.8-1.8,1.8-1.8h14.3c1,0,1.8,0.8,1.8,1.8l0,0
			C452.3,271.4,451.5,272.2,450.5,272.2z"/>
		<circle class="st14" cx="378.5" cy="264.2" r="9.2"/>
	</g>
</g>
<g id="window_1">
	<g id="Layer_5">
		<rect x="33.5" y="34.9" class="st0" width="256.1" height="256.1"/>
	</g>
	<g id="tab_2">
		<rect x="46.1" y="101.3" class="st5" width="78.2" height="60.2"/>
		<circle class="st8" cx="57.9" cy="113.9" r="7.4"/>
		<g>
			<g>
				<path class="st2" d="M68.7,111.6c1.9,0,1.9-3,0-3C66.8,108.6,66.8,111.6,68.7,111.6L68.7,111.6z"/>
			</g>
		</g>
		<g>
			<g>
				<path class="st2" d="M72.9,110.2c12.1,0,24.3,0,36.4,0c0.5,0,0.5-0.8,0-0.8c-12.1,0-24.3,0-36.4,0
					C72.5,109.5,72.4,110.2,72.9,110.2L72.9,110.2z"/>
			</g>
		</g>
		<g>
			<g>
				<path class="st2" d="M68.9,114.2c3.9,0,7.7,0,11.6,0c0.5,0,0.5-0.8,0-0.8c-3.9,0-7.7,0-11.6,0C68.4,113.5,68.4,114.2,68.9,114.2
					L68.9,114.2z"/>
			</g>
		</g>
		<g>
			<g>
				<path class="st2" d="M68.5,118.7c14.5,0,28.9,0,43.4,0c0.5,0,0.5-0.8,0-0.8c-14.5,0-28.9,0-43.4,0C68,117.9,68,118.7,68.5,118.7
					L68.5,118.7z"/>
			</g>
		</g>
		<g>
			<g>
				<path class="st2" d="M90.2,114.9c6.2,0,12.5,0,18.7,0c0.5,0,0.5-0.8,0-0.8c-6.2,0-12.5,0-18.7,0
					C89.7,114.1,89.7,114.9,90.2,114.9L90.2,114.9z"/>
			</g>
		</g>
		<g>
			<g>
				<path class="st2" d="M53.6,130.5c17.8,0,35.5,0,53.3,0c0.5,0,0.5-0.8,0-0.8c-17.8,0-35.5,0-53.3,0
					C53.1,129.7,53.1,130.5,53.6,130.5L53.6,130.5z"/>
			</g>
		</g>
		<g>
			<g>
				<path class="st2" d="M54.4,134.5c3.3,0,6.6,0,9.9,0c0.5,0,0.5-0.8,0-0.8c-3.3,0-6.6,0-9.9,0C53.9,133.7,53.9,134.5,54.4,134.5
					L54.4,134.5z"/>
			</g>
		</g>
		<g>
			<g>
				<path class="st2" d="M56.3,138.7c6.8,0,13.6,0,20.4,0c0.5,0,0.5-0.8,0-0.8c-6.8,0-13.6,0-20.4,0
					C55.8,137.9,55.8,138.7,56.3,138.7L56.3,138.7z"/>
			</g>
		</g>
		<g>
			<g>
				<path class="st2" d="M80.3,135.1c6.5,0,12.9,0,19.4,0c0.5,0,0.5-0.8,0-0.8c-6.5,0-12.9,0-19.4,0
					C79.8,134.3,79.8,135.1,80.3,135.1L80.3,135.1z"/>
			</g>
		</g>
		<g>
			<g>
				<path class="st2" d="M54.2,143.3c18,0,35.9,0,53.9,0c0.5,0,0.5-0.8,0-0.8c-18,0-35.9,0-53.9,0C53.7,142.6,53.7,143.3,54.2,143.3
					L54.2,143.3z"/>
			</g>
		</g>
	</g>
	<g id="tab">
		<rect x="46.1" y="54.6" class="st10" width="135.4" height="38.4"/>
		<g>
			<g>
				<path class="st5" d="M53.4,66.9c32.5,0,64.9,0,97.4,0c1.9,0,1.9-3,0-3c-32.5,0-64.9,0-97.4,0C51.5,63.9,51.5,66.9,53.4,66.9
					L53.4,66.9z"/>
			</g>
		</g>
		<g>
			<g>
				<path class="st5" d="M53.8,73.9c7.7,0,15.3,0,23,0c1,0,1-1.5,0-1.5c-7.7,0-15.3,0-23,0C52.8,72.4,52.8,73.9,53.8,73.9L53.8,73.9
					z"/>
			</g>
		</g>
		<g>
			<g>
				<path class="st5" d="M83.6,74.3c21.3,0,42.5,0,63.8,0c1,0,1-1.5,0-1.5c-21.3,0-42.5,0-63.8,0C82.6,72.8,82.6,74.3,83.6,74.3
					L83.6,74.3z"/>
			</g>
		</g>
		<g>
			<g>
				<path class="st5" d="M54.2,79.3c28.9,0,57.7,0,86.6,0c1,0,1-1.5,0-1.5c-28.9,0-57.7,0-86.6,0C53.2,77.8,53.2,79.3,54.2,79.3
					L54.2,79.3z"/>
			</g>
		</g>
	</g>
	<g id="character">
		<g id="hand_right">
			<path class="st6" d="M111.3,149.9c0.2-1-0.2-1.1-0.4-4.2c-0.3-3.8,0.3-5-0.7-6.4c-0.4-0.6-1.2-1.4-3-1.9
				c-2.7-4.6-3.9-8.6-4.6-11.5c-0.5-2.5-1-6-3.4-7.3c-0.3-0.1-1.2-0.6-2-0.3c-1.3,0.6-1.2,3.2-1.2,4.3c0,1.2,0.3,3.4,1.8,6
				c-1.2,0.3-3.7,1-5.7,3.3c-0.8,0.9-2.8,3.1-2.2,5.6c0.3,1.4,1.4,2.4,2.9,3.8c0.9,0.9,1.8,1.5,2.4,1.8c0.3,0.6,0.9,1.4,1.4,2.6
				c1.6,3.1,1.7,4.4,2.8,6.1c0.6,0.9,1.7,2.1,3.6,3.2C109.4,153.4,110.9,151.3,111.3,149.9z"/>
			<path class="st1" d="M111.7,149.6c-1,0-2.6,0.1-4.3,0.9c-3.6,1.8-4.7,5.5-4.9,6.2c1.7,7.8,3.1,14.1,3.9,18.1
				c3.2,15.1,7.7,30,11.2,45.1c0,0,0.7,3,2.7,7.3c2.6,5.4,4.4,6.4,5.1,6.7c2.2,1,4.4,0.5,5.4,0.3c2.4-0.5,4-1.7,5-2.5
				c6-4.6,8.9-6.9,10-7.9c5.3-5.1,8.9-9.7,10.4-11.6c6.5-8.3,10.5-13.5,13.6-21.3c2.2-5.5,4.6-11.6,3.9-19.5
				c-1.1-12.5-9.4-21-12.9-24.1c-1.3,0.5-3.2,1.3-5.4,2.6c-3.7,2.3-6,4.9-9.1,8.8c-3.9,4.9-6.5,8.1-10.5,14.2
				c-2.1,3.1-4.8,7.3-7.8,12.5c-2.4-4.6-4.8-9.4-7.1-14.4C117.7,163.7,114.6,156.6,111.7,149.6z"/>
			<g>
				<path class="st3" d="M111.7,149.6c5.1,12.3,10.6,24.4,16.5,36.3c5.1-10,11.4-19.3,18.8-27.7c3.9-4.4,8.3-8.8,13.8-10.8"/>
			</g>
			<g>
				<path class="st3" d="M111.1,149.8c-3.3,0-6.5,1.8-8.1,4.6"/>
			</g>
			<g>
				<path class="st3" d="M102.6,157.3c4.1,19.6,8.7,39.1,13.9,58.5c1.4,5.2,2.9,10.6,5.9,15.1c1,1.5,2.3,3,4.1,3.5
					c2.3,0.8,4.8-0.2,6.9-1.3c9.9-5.2,17.3-14.1,24.4-22.8"/>
			</g>
			<g>
				<g>
					<path class="st2" d="M105.2,142.8c-1.7,1.3-4.1-0.2-3.6-2.3c0.1-0.5-0.6-0.7-0.7-0.2c-0.7,2.7,2.4,4.9,4.7,3.2
						C105.9,143.2,105.6,142.6,105.2,142.8L105.2,142.8z"/>
				</g>
			</g>
			<g>
				<path class="st3" d="M102.5,139.1c0.6-0.8,1.7-1.1,2.7-1.4c0.8-0.2,1.7-0.4,2.5-0.4c0.9,0.1,1.7,0.4,2.2,1.1
					c0.3,0.5,0.4,1.2,0.5,1.8c0.3,3.2,0.6,6.4,0.9,9.5"/>
			</g>
			<g>
				<g>
					<path class="st2" d="M97.1,125.1c-0.9-2-1.8-4.8,0.3-6.4c0.4-0.3,0-0.9-0.4-0.6c-2.5,1.9-1.7,5-0.6,7.4
						C96.6,125.9,97.3,125.5,97.1,125.1L97.1,125.1z"/>
				</g>
			</g>
			<g>
				<path class="st3" d="M98.7,118.4c1.1,0.2,1.6,1.4,2,2.4c2,5.2,4,10.5,6,15.7"/>
			</g>
			<g>
				<g>
					<path class="st2" d="M94.9,129.1c-1.1,0.6-1.2,2-1.1,3.1c0.2,1.8,1.1,3.4,2.1,4.9c0.3,0.4,0.9,0,0.6-0.4
						c-0.6-0.9-1.1-1.7-1.5-2.7c-0.4-1-1.1-3.5,0.2-4.3C95.7,129.5,95.3,128.8,94.9,129.1L94.9,129.1z"/>
				</g>
			</g>
			<g>
				<g>
					<path class="st2" d="M91.9,131.7c-1.1,2.5-0.6,5.4,1.3,7.4c0.3,0.3,0.9-0.2,0.5-0.5c-1.7-1.7-2.2-4.2-1.2-6.4
						C92.7,131.6,92.1,131.3,91.9,131.7L91.9,131.7z"/>
				</g>
			</g>
			<g>
				<g>
					<path class="st2" d="M90,135c-1,2.3-0.2,4.9,1.8,6.3c0.4,0.3,0.8-0.4,0.4-0.6c-1.7-1.1-2.4-3.4-1.6-5.2
						C90.9,135,90.2,134.6,90,135L90,135z"/>
				</g>
			</g>
		</g>
		<g id="torso">
			<path class="st1" d="M161,147.4c-0.6,2.6-1.2,5.8-1.8,9.6c-0.2,1.1-0.5,3.5-0.8,6.4c-0.6,5.5-0.7,10-0.8,13.7
				c-0.3,12.9-0.5,22.6,0,33.7c1.4,33.6,8.8,73.3,10,79.8c29.7,0,59.5,0,89.2,0c2-14.7,3.3-27.2,4.1-36.8c1.5-17.2,3-35.4,1.9-59.1
				c-0.3-6.6-0.7-12.2-1.1-16c-2.5-2-6-4.6-10.4-7.5c-5.4-3.6-13.5-9-24.8-13.9c-5.4-2.3-15.2-6.1-28-8.4
				C183.9,146.2,171.1,146.3,161,147.4z"/>
			<g>
				<g>
					<path class="st5" d="M157.6,170.2c-2.9,40.3,2.2,80.5,9.5,120.1c0.1,0.5,0.8,0.3,0.7-0.2c-7.3-39.5-12.4-79.7-9.5-119.9
						C158.4,169.8,157.6,169.8,157.6,170.2L157.6,170.2z"/>
				</g>
			</g>
			<g>
				<path class="st3" d="M159.9,147.4c34.4-3.9,70.1,6.4,97.1,28"/>
			</g>
			<g>
				<g>
					<path class="st2" d="M261.8,186.8c2.7,34.5-1.2,69-5.6,103.3c-0.1,0.5,0.7,0.5,0.8,0c4.4-34.2,8.3-68.7,5.6-103.3
						C262.5,186.4,261.8,186.4,261.8,186.8L261.8,186.8z"/>
				</g>
			</g>
		</g>
		<g id="hand_left">
			<path class="st1" d="M257,174.8c-2.1,1.6-4.2,3.4-6.3,5.6c-10.3,10.6-14.4,22.9-16.2,31c1.9,4.5,3.8,9,5.7,13.5
				c9.7,22.7,19.7,44.5,29.9,65.7c6.4,0,12.8,0,19.1,0c0-17.2,0-34.3,0-51.5c-3.7-9.7-7-17.7-9.5-23.5c-3.9-9-6.1-14.1-9.7-20.6
				C265.2,186.1,260.4,179.3,257,174.8z"/>
			<g>
				<g>
					<path class="st5" d="M234.1,211.5c10.8,25.9,22.3,51.4,34.7,76.6c0.2,0.4,0.9,0.1,0.6-0.4c-12.4-25.1-23.9-50.6-34.6-76.4
						C234.6,210.8,233.9,211,234.1,211.5L234.1,211.5z"/>
				</g>
			</g>
			<g>
				<path class="st3" d="M257,174.8c14.8,18.8,23.4,41.6,31.8,64"/>
			</g>
		</g>
		<g id="head">
			<path class="st6" d="M190.2,132.6c-1.7,1.8-2.5,3.8-2.8,4.8c-0.4,1.1-2,5.8-0.1,11c0.3,0.8,1.1,2.8,2.8,4.8
				c2.7,3.1,5.8,4.3,6.5,4.5c3.4,1.2,6.4,0.8,7.8,0.6c0.2,0.5,0.5,1.1,0.7,1.6c-0.2,0-1.4,0.1-2.1,1.1c-0.8,1.1-0.3,2.4-0.1,2.8
				c0.6,1.7,2.3,2.4,2.6,2.5c2.1,0.9,4.2-0.1,5.2-0.5c4.2-1.9,5.9-6.3,6.3-7.6c-0.4-0.9-0.8-1.8-1.3-2.8c-0.6-1.3-1.3-2.5-2-3.6
				c0.4-1.3,1-3.2,1.7-5.6c1.5-5.1,1.6-5.7,1.6-6.3c0-4.8-5.5-8.4-6.2-8.8C204.5,127.1,195,127.5,190.2,132.6z"/>
			<path class="st15" d="M188.9,133.8c0.4-0.4,1.1-0.9,1.9-1.5c0.8-0.5,3-1.6,7.5-1.5c2.9,0.1,7.9,0.2,12.4,3.6
				c1.2,0.9,2.7,2.1,3.8,4.2c1.8,3.6,0.9,7.2,0.6,8.4c0.5-0.9,1-1.9,1.5-2.8c0.4,0.8,1.4,2.6,3.4,3.9c0.3,0.2,1.6,1,3.9,1.5
				c1.4,0.3,3.6,0.6,7.3,0c2.9-0.5,6.9-1.2,11.2-4.2c1.4-1,4.4-3.1,6.7-7.1c2.6-4.5,2.7-8.8,2.8-10.8c0.1-6.5-2.4-11.1-3.1-12.5
				c-1.2-2.1-4.2-7.5-10.6-9.8c-2-0.7-6.3-2.3-10.5-0.7c-1.3,0.5-2.8,1.3-5.3,1.6c-1.4,0.1-3,0.3-4.4-0.5c-1.9-1.1-1.7-2.8-3.2-3.8
				c-2.4-1.6-6.1,0.3-6.9,0.7c-3,1.6-4.2,4.4-4.9,5.8c-1.9,4.3-1.2,8.4-0.8,10.2c-1.5-0.3-3.8-0.5-6.4,0c-1.6,0.3-5,1-7.8,3.9
				c-1.3,1.3-2.9,2.9-2.9,5.4C185.2,131.5,188.6,133.6,188.9,133.8z"/>
			<g>
				<path class="st3" d="M190.2,132.6c-3.7,4.2-4.9,10.5-2.9,15.8c1.8,4.9,6.4,9.4,12.6,10c5.4,0.5,10.7-2,13.9-6.6"/>
			</g>
			<g>
				<g>
					<path class="st2" d="M204,158.3c0.5,1.2,1,2.3,1.7,3.4c0.3,0.4,0.9,0,0.6-0.4c-0.6-1-1.2-2.1-1.6-3.2
						C204.6,157.7,203.9,157.9,204,158.3L204,158.3z"/>
				</g>
			</g>
			<g>
				<path class="st3" d="M203.2,160.5c-0.6,0.7-0.6,1.8-0.5,2.7c0.1,0.6,0.2,1.2,0.5,1.7c0.5,0.7,1.3,1.2,2.1,1.3
					c0.9,0.1,1.7,0,2.6-0.2c4-1,7.5-4.1,9-7.9"/>
			</g>
			<g>
				<path class="st3" d="M188.9,133.8c-1.6-0.1-3-1.3-3.5-2.8c-0.5-1.5-0.4-3.2,0.2-4.7c1.6-4.4,6.2-7.2,10.8-7.8
					c1.9-0.2,3.8-0.1,5.6,0.5c4,1.3,6.8,5,8.9,8.7c2.1,3.7,3.7,7.7,6.6,10.8"/>
			</g>
			<g>
				<path class="st3" d="M190.8,132.4c4.7-2,10-2,14.9-0.4c3,1,5.9,2.6,7.9,5.1s2.8,6,1.6,9"/>
			</g>
			<g>
				<path class="st3" d="M217.8,138.8c0,2.6-0.8,5.3-2.3,7.4"/>
			</g>
			<g>
				<g>
					<path class="st2" d="M195.2,134.8c-1.6,2.1-6.4,10.8-1.2,11.5c0.5,0.1,0.5-0.7,0-0.8c-2.5-0.3-1.1-4.6-0.6-5.9
						c0.6-1.6,1.4-3,2.4-4.3C196,135,195.5,134.5,195.2,134.8L195.2,134.8z"/>
				</g>
			</g>
			<g>
				<g>
					<path class="st2" d="M194.1,149.8c2.4,0.5,4.9-0.4,6.4-2.3c0.3-0.4-0.2-0.9-0.5-0.5c-1.4,1.7-3.5,2.5-5.7,2.1
						C193.8,149,193.6,149.7,194.1,149.8L194.1,149.8z"/>
				</g>
			</g>
			<g>
				<path class="st3" d="M202.5,119.4c-1.2-3.4-1.1-7.2,0.3-10.5c1.4-3.3,4.1-6.1,7.3-7.5c1.3-0.6,3-1,4.1,0
					c0.7,0.6,0.9,1.4,1.4,2.2c0.8,1.5,2.3,2.6,4,2.9c2.7,0.5,5.4-0.9,8.1-1.7c5.4-1.5,11.5,0.3,15.8,3.9c4.3,3.6,7,9,8,14.5
					c0.7,4,0.6,8.2-0.8,12.1c-1.7,4.6-5.1,8.5-9.3,11.1c-4.2,2.5-9.2,3.7-14.1,3.7c-1.7,0-3.3-0.1-4.9-0.7c-2.5-0.8-4.5-2.7-5.6-5.1
					"/>
			</g>
			<ellipse transform="matrix(0.25 -0.9683 0.9683 0.25 13.891 296.8706)" class="st2" cx="198.6" cy="139.5" rx="1.3" ry="0.7"/>
			<ellipse transform="matrix(0.25 -0.9683 0.9683 0.25 8.8395 289.1499)" class="st2" cx="191.1" cy="138.9" rx="1.3" ry="0.7"/>
			<g>
				<path class="st3" d="M202.5,118.8c3.4,0.7,6.8,1.8,9.6,3.8c2.9,2,5.2,4.9,5.9,8.3"/>
			</g>
			<path class="st8" d="M211.1,119.8c1.6,0.7,3.8,1.8,6.1,3.8c3.6,3.1,5.3,6.7,6.1,8.7c1.4-3.8,0.4-8.1-2.6-10.7
				C218,119.3,214.4,118.7,211.1,119.8z"/>
		</g>
	</g>
	<g id="signs">
		<circle class="st5" cx="98.2" cy="263.8" r="17.4"/>
		<circle class="st8" cx="227.7" cy="263.8" r="17.4"/>
		<circle class="st5" cx="162.9" cy="265.6" r="17.4"/>
		<g>
			<g>
				<path class="st5" d="M201,251.7c1.9,0,1.9-3,0-3C199,248.7,199,251.7,201,251.7L201,251.7z"/>
			</g>
		</g>
		<path class="st5" d="M230,254.7h-0.2h-2.5h-3.7c-1.1,0-2,0.9-2,2v0.8v2.9h3.7v-0.9h2v9.8h-1.7v-1.1H222v1.6v2v1.8
			c0,0.3,0.2,0.5,0.5,0.5h6.4c0.7,0,1.3-0.2,1.9-0.6c1.5-0.7,2.6-2.3,2.6-4.1V258C233.3,256.2,231.8,254.7,230,254.7z"/>
		<path class="st2" d="M169.7,263.8h-14.2c-1,0-1.8-0.8-1.8-1.8l0,0c0-1,0.8-1.8,1.8-1.8h14.2c1,0,1.8,0.8,1.8,1.8l0,0
			C171.5,262.9,170.7,263.8,169.7,263.8z"/>
		<path class="st2" d="M169.8,272.1h-14.3c-1,0-1.8-0.8-1.8-1.8l0,0c0-1,0.8-1.8,1.8-1.8h14.3c1,0,1.8,0.8,1.8,1.8l0,0
			C171.6,271.2,170.8,272.1,169.8,272.1z"/>
		<circle class="st14" cx="97.8" cy="264.1" r="9.2"/>
	</g>
</g>
</svg>
